<svg data-name="Layer 2" xmlns="http://www.w3.org/2000/svg" width="24" height="24" viewBox="0 0 24 24">
    <g data-name="invisible box">
        <path data-name="Rectangle 20910" style="fill:none" d="M0 0h24v24H0z"/>
    </g>
    <g data-name="icons Q2">
        <g data-name="Group 21447">
            <path data-name="Path 11953" d="M23 10h-2V7.5A5.5 5.5 0 0 0 15.5 2h-1A5.5 5.5 0 0 0 9 7.5V10H7a1 1 0 0 0-1 1v12a1 1 0 0 0 1 1h16a1 1 0 0 0 1-1V11a1 1 0 0 0-1-1zM11 7.5A3.5 3.5 0 0 1 14.5 4h1A3.5 3.5 0 0 1 19 7.5V10h-8zM22 22H8V12h14z" transform="translate(-3 -1)" style="fill:#c7cad9"/>
            <path data-name="Path 11954" d="M23.9 27.918a2 2 0 1 0-3 1.75v1.25a1 1 0 0 0 2 0v-1.25a2 2 0 0 0 1-1.75z" transform="translate(-9.95 -12.968)" style="fill:#c7cad9"/>
        </g>
    </g>
</svg>
